<svg viewBox="0 0 24 26" fill="none" xmlns="http://www.w3.org/2000/svg">
<g clip-path="url(#clip0_257_86)">
<rect width="24" height="26" fill="#8CAAEE"/>
<path d="M1.5 20V5.4H5.84C6.82667 5.4 7.68 5.58667 8.4 5.96C9.13333 6.33333 9.7 6.86 10.1 7.54C10.5 8.22 10.7 9.02667 10.7 9.96V15.42C10.7 16.34 10.5 17.1467 10.1 17.84C9.7 18.52 9.13333 19.0533 8.4 19.44C7.68 19.8133 6.82667 20 5.84 20H1.5ZM4 17.7H5.84C6.56 17.7 7.13333 17.5 7.56 17.1C7.98667 16.6867 8.2 16.1267 8.2 15.42V9.96C8.2 9.26667 7.98667 8.72 7.56 8.32C7.13333 7.90667 6.56 7.7 5.84 7.7H4V17.7ZM20.1722 23.6L17.9722 19.98L18.4122 20.18C18.3589 20.18 18.2922 20.18 18.2122 20.18C18.1455 20.1933 18.0722 20.2 17.9922 20.2C17.0589 20.2 16.2455 20.02 15.5522 19.66C14.8589 19.3 14.3189 18.7933 13.9322 18.14C13.5455 17.4733 13.3522 16.7067 13.3522 15.84V9.56C13.3522 8.66667 13.5455 7.9 13.9322 7.26C14.3189 6.60667 14.8589 6.1 15.5522 5.74C16.2455 5.38 17.0589 5.2 17.9922 5.2C18.9255 5.2 19.7389 5.38 20.4322 5.74C21.1255 6.1 21.6655 6.60667 22.0522 7.26C22.4389 7.91333 22.6322 8.68 22.6322 9.56V15.84C22.6322 16.72 22.4389 17.4933 22.0522 18.16C21.6789 18.8133 21.1455 19.3133 20.4522 19.66L22.8722 23.6H20.1722ZM17.9922 18C18.6855 18 19.2122 17.8133 19.5722 17.44C19.9455 17.0533 20.1322 16.52 20.1322 15.84V9.56C20.1322 8.86667 19.9389 8.33333 19.5522 7.96C19.1789 7.57333 18.6589 7.38 17.9922 7.38C17.3255 7.38 16.7989 7.57333 16.4122 7.96C16.0389 8.33333 15.8522 8.86667 15.8522 9.56V15.84C15.8522 16.52 16.0389 17.0533 16.4122 17.44C16.7855 17.8133 17.3122 18 17.9922 18Z" fill="#181926"/>
</g>
<defs>
<clipPath id="clip0_257_86">
<rect width="24" height="26" fill="white"/>
</clipPath>
</defs>
</svg>
